<svg width="28" height="30" viewBox="0 0 28 30" fill="none" xmlns="http://www.w3.org/2000/svg">
<g filter="url(#filter0_d)">
<path d="M23 7.33698H19.07L19.442 3.06498C19.478 2.65298 19.172 2.28998 18.76 2.25298C18.343 2.22298 17.984 2.52298 17.948 2.93598L17.565 7.33598H11.245L11.615 3.06598C11.652 2.65298 11.345 2.28998 10.935 2.25298C10.515 2.22298 10.158 2.52298 10.122 2.93598L9.74 7.33598H5.782C5.368 7.33598 5.032 7.67298 5.032 8.08598C5.032 8.49898 5.368 8.83598 5.782 8.83598H9.61L9.06 15.163H5C4.586 15.163 4.25 15.499 4.25 15.913C4.25 16.327 4.586 16.663 5 16.663H8.93L8.558 20.935C8.522 21.347 8.828 21.71 9.24 21.747L9.306 21.75C9.691 21.75 10.018 21.455 10.052 21.064L10.435 16.664H16.755L16.385 20.934C16.349 21.347 16.655 21.71 17.067 21.747L17.133 21.75C17.518 21.75 17.845 21.455 17.879 21.064L18.261 16.664H22.218C22.631 16.664 22.968 16.327 22.968 15.914C22.968 15.501 22.631 15.164 22.218 15.164H18.39L18.94 8.83698H23C23.414 8.83698 23.75 8.50098 23.75 8.08698C23.75 7.67298 23.414 7.33698 23 7.33698ZM16.885 15.163H10.565L11.115 8.83698H17.435L16.885 15.163Z" fill="white"/>
</g>
<defs>
<filter id="filter0_d" x="-2" y="0" width="32" height="32" filterUnits="userSpaceOnUse" color-interpolation-filters="sRGB">
<feFlood flood-opacity="0" result="BackgroundImageFix"/>
<feColorMatrix in="SourceAlpha" type="matrix" values="0 0 0 0 0 0 0 0 0 0 0 0 0 0 0 0 0 0 127 0"/>
<feOffset dy="4"/>
<feGaussianBlur stdDeviation="2"/>
<feColorMatrix type="matrix" values="0 0 0 0 0 0 0 0 0 0 0 0 0 0 0 0 0 0 0.25 0"/>
<feBlend mode="normal" in2="BackgroundImageFix" result="effect1_dropShadow"/>
<feBlend mode="normal" in="SourceGraphic" in2="effect1_dropShadow" result="shape"/>
</filter>
</defs>
</svg>
