<svg width="28" height="30" viewBox="0 0 28 30" fill="none" xmlns="http://www.w3.org/2000/svg">
<g filter="url(#filter0_d)">
<path d="M22.585 9.46798C23.245 9.46798 23.785 8.92998 23.785 8.26798C23.785 7.60598 23.245 7.06798 22.585 7.06798H19.365L19.675 3.52098C19.702 3.20298 19.605 2.89098 19.398 2.64598C19.192 2.40098 18.903 2.24998 18.576 2.22098C17.926 2.18598 17.341 2.65298 17.283 3.31398L16.957 7.06798H11.9L12.208 3.52298C12.268 2.86498 11.778 2.28098 11.111 2.22098C10.446 2.17098 9.876 2.65098 9.818 3.31298L9.493 7.06698H6.163C5.5 7.06698 4.963 7.60498 4.963 8.26698C4.963 8.92898 5.501 9.46698 6.163 9.46698H9.285L8.845 14.531H5.416C4.754 14.531 4.216 15.071 4.216 15.731C4.216 16.391 4.754 16.933 5.416 16.933H8.636L8.326 20.481C8.269 21.138 8.758 21.721 9.416 21.781L9.522 21.786C10.148 21.786 10.662 21.314 10.717 20.688L11.044 16.935H16.1L15.792 20.479C15.732 21.137 16.222 21.721 16.882 21.781L16.988 21.786C17.605 21.786 18.13 21.304 18.183 20.688L18.508 16.935H21.838C22.498 16.935 23.038 16.395 23.038 15.735C23.038 15.075 22.498 14.533 21.838 14.533H18.716L19.156 9.46898H22.586L22.585 9.46798ZM16.747 9.46798L16.307 14.531H11.253L11.693 9.46898H16.748L16.747 9.46798Z" fill="white"/>
</g>
<defs>
<filter id="filter0_d" x="-2" y="0" width="32" height="32" filterUnits="userSpaceOnUse" color-interpolation-filters="sRGB">
<feFlood flood-opacity="0" result="BackgroundImageFix"/>
<feColorMatrix in="SourceAlpha" type="matrix" values="0 0 0 0 0 0 0 0 0 0 0 0 0 0 0 0 0 0 127 0"/>
<feOffset dy="4"/>
<feGaussianBlur stdDeviation="2"/>
<feColorMatrix type="matrix" values="0 0 0 0 0 0 0 0 0 0 0 0 0 0 0 0 0 0 0.25 0"/>
<feBlend mode="normal" in2="BackgroundImageFix" result="effect1_dropShadow"/>
<feBlend mode="normal" in="SourceGraphic" in2="effect1_dropShadow" result="shape"/>
</filter>
</defs>
</svg>
