<svg width="30" height="31" viewBox="0 0 30 31" fill="none" xmlns="http://www.w3.org/2000/svg">
<g filter="url(#filter0_d)">
<path d="M25.46 7.57002L15.357 2.11502C15.134 1.99502 14.867 1.99502 14.644 2.11502L4.54299 7.57002C4.17899 7.76702 4.04299 8.22202 4.23999 8.58702C4.37499 8.83702 4.63399 8.98002 4.89999 8.98002C5.01999 8.98002 5.14299 8.95002 5.25599 8.89002L6.07099 8.45002L7.69999 19.963C7.91399 21.178 9.00799 22.025 10.358 22.025H19.64C20.992 22.025 22.085 21.177 22.303 19.938L23.929 8.44802L24.747 8.89002C25.111 9.08302 25.567 8.95002 25.764 8.58602C25.96 8.22302 25.824 7.76802 25.46 7.57002ZM20.822 19.703C20.715 20.309 20.119 20.525 19.642 20.525H10.36C9.87999 20.525 9.28499 20.309 9.18199 19.727L7.47999 7.69002L15 3.62802L22.522 7.68802L20.822 19.703Z" fill="white"/>
<path d="M11.22 12.1841C11.22 14.2681 12.915 15.9641 15 15.9641C17.085 15.9641 18.78 14.2681 18.78 12.1841C18.78 10.1001 17.085 8.40405 15 8.40405C12.915 8.40405 11.22 10.1001 11.22 12.1841ZM17.28 12.1841C17.28 13.4421 16.258 14.4641 15 14.4641C13.742 14.4641 12.72 13.4421 12.72 12.1841C12.72 10.9261 13.742 9.90405 15 9.90405C16.258 9.90405 17.28 10.9261 17.28 12.1841Z" fill="white"/>
</g>
<defs>
<filter id="filter0_d" x="-1" y="0" width="32" height="32" filterUnits="userSpaceOnUse" color-interpolation-filters="sRGB">
<feFlood flood-opacity="0" result="BackgroundImageFix"/>
<feColorMatrix in="SourceAlpha" type="matrix" values="0 0 0 0 0 0 0 0 0 0 0 0 0 0 0 0 0 0 127 0"/>
<feOffset dy="4"/>
<feGaussianBlur stdDeviation="2"/>
<feColorMatrix type="matrix" values="0 0 0 0 0 0 0 0 0 0 0 0 0 0 0 0 0 0 0.25 0"/>
<feBlend mode="normal" in2="BackgroundImageFix" result="effect1_dropShadow"/>
<feBlend mode="normal" in="SourceGraphic" in2="effect1_dropShadow" result="shape"/>
</filter>
</defs>
</svg>
