<svg width="30" height="30" viewBox="0 0 30 30" fill="none" xmlns="http://www.w3.org/2000/svg">
<g filter="url(#filter0_d)">
<path d="M15 21.638H14.986C12.403 21.59 4.95001 14.856 4.95001 8.478C4.95001 5.414 7.47501 2.724 10.353 2.724C12.643 2.724 14.183 4.304 14.999 5.454C15.813 4.306 17.353 2.724 19.644 2.724C22.524 2.724 25.048 5.414 25.048 8.479C25.048 14.855 17.594 21.589 15.011 21.636H15V21.638ZM10.354 4.225C8.27401 4.225 6.45101 6.213 6.45101 8.48C6.45101 14.22 13.485 20.076 15.001 20.138C16.519 20.076 23.551 14.221 23.551 8.48C23.551 6.213 21.728 4.225 19.648 4.225C17.12 4.225 15.708 7.161 15.696 7.19C15.466 7.752 14.54 7.752 14.309 7.19C14.295 7.16 12.884 4.225 10.355 4.225H10.354Z" fill="white"/>
</g>
<defs>
<filter id="filter0_d" x="-1" y="0" width="32" height="32" filterUnits="userSpaceOnUse" color-interpolation-filters="sRGB">
<feFlood flood-opacity="0" result="BackgroundImageFix"/>
<feColorMatrix in="SourceAlpha" type="matrix" values="0 0 0 0 0 0 0 0 0 0 0 0 0 0 0 0 0 0 127 0"/>
<feOffset dy="4"/>
<feGaussianBlur stdDeviation="2"/>
<feColorMatrix type="matrix" values="0 0 0 0 0 0 0 0 0 0 0 0 0 0 0 0 0 0 0.25 0"/>
<feBlend mode="normal" in2="BackgroundImageFix" result="effect1_dropShadow"/>
<feBlend mode="normal" in="SourceGraphic" in2="effect1_dropShadow" result="shape"/>
</filter>
</defs>
</svg>
