<svg width="28" height="30" viewBox="0 0 28 30" fill="none" xmlns="http://www.w3.org/2000/svg">
<g filter="url(#filter0_d)">
<path d="M21.75 22H6.25C5.01 22 4 20.99 4 19.75V4.25C4 3.01 5.01 2 6.25 2H21.75C22.99 2 24 3.01 24 4.25V19.75C24 20.99 22.99 22 21.75 22ZM6.25 3.5C5.836 3.5 5.5 3.837 5.5 4.25V19.75C5.5 20.163 5.836 20.5 6.25 20.5H21.75C22.164 20.5 22.5 20.163 22.5 19.75V4.25C22.5 3.837 22.164 3.5 21.75 3.5H6.25Z" fill="white"/>
<path d="M19 8.64002H9C8.586 8.64002 8.25 8.30301 8.25 7.89001C8.25 7.47701 8.586 7.14001 9 7.14001H19C19.414 7.14001 19.75 7.47501 19.75 7.89001C19.75 8.30501 19.414 8.64002 19 8.64002ZM19 12.75H9C8.586 12.75 8.25 12.414 8.25 12C8.25 11.586 8.586 11.25 9 11.25H19C19.414 11.25 19.75 11.586 19.75 12C19.75 12.414 19.414 12.75 19 12.75ZM14 16.86H9C8.586 16.86 8.25 16.525 8.25 16.11C8.25 15.695 8.586 15.36 9 15.36H14C14.414 15.36 14.75 15.697 14.75 16.11C14.75 16.523 14.414 16.86 14 16.86Z" fill="white"/>
</g>
<defs>
<filter id="filter0_d" x="-2" y="0" width="32" height="32" filterUnits="userSpaceOnUse" color-interpolation-filters="sRGB">
<feFlood flood-opacity="0" result="BackgroundImageFix"/>
<feColorMatrix in="SourceAlpha" type="matrix" values="0 0 0 0 0 0 0 0 0 0 0 0 0 0 0 0 0 0 127 0"/>
<feOffset dy="4"/>
<feGaussianBlur stdDeviation="2"/>
<feColorMatrix type="matrix" values="0 0 0 0 0 0 0 0 0 0 0 0 0 0 0 0 0 0 0.25 0"/>
<feBlend mode="normal" in2="BackgroundImageFix" result="effect1_dropShadow"/>
<feBlend mode="normal" in="SourceGraphic" in2="effect1_dropShadow" result="shape"/>
</filter>
</defs>
</svg>
