<svg width="28" height="30" viewBox="0 0 28 30" fill="none" xmlns="http://www.w3.org/2000/svg">
<g filter="url(#filter0_d)">
<path d="M21.25 3.01801H6.75C5.233 3.01801 4 4.25201 4 5.77001V18.265C4 19.783 5.233 21.018 6.75 21.018H21.25C22.767 21.018 24 19.783 24 18.265V5.77001C24 4.25201 22.767 3.01801 21.25 3.01801ZM6.75 4.51801H21.25C21.94 4.51801 22.5 5.07801 22.5 5.76801V6.48201L14.45 11.849C14.177 12.029 13.824 12.031 13.55 11.847L5.5 6.48201V5.76801C5.5 5.07801 6.06 4.51801 6.75 4.51801ZM21.25 19.516H6.75C6.06 19.516 5.5 18.956 5.5 18.266V8.24001L12.74 13.07C13.123 13.326 13.562 13.454 14 13.454C14.44 13.454 14.877 13.326 15.26 13.071L22.5 8.24101V18.263C22.5 18.953 21.94 19.513 21.25 19.513V19.516Z" fill="white"/>
</g>
<defs>
<filter id="filter0_d" x="-2" y="0" width="32" height="32" filterUnits="userSpaceOnUse" color-interpolation-filters="sRGB">
<feFlood flood-opacity="0" result="BackgroundImageFix"/>
<feColorMatrix in="SourceAlpha" type="matrix" values="0 0 0 0 0 0 0 0 0 0 0 0 0 0 0 0 0 0 127 0"/>
<feOffset dy="4"/>
<feGaussianBlur stdDeviation="2"/>
<feColorMatrix type="matrix" values="0 0 0 0 0 0 0 0 0 0 0 0 0 0 0 0 0 0 0.25 0"/>
<feBlend mode="normal" in2="BackgroundImageFix" result="effect1_dropShadow"/>
<feBlend mode="normal" in="SourceGraphic" in2="effect1_dropShadow" result="shape"/>
</filter>
</defs>
</svg>
