<svg width="28" height="30" viewBox="0 0 28 30" fill="none" xmlns="http://www.w3.org/2000/svg">
<g filter="url(#filter0_d)">
<path d="M13.55 12.082C13.823 12.264 14.177 12.264 14.45 12.082L24 5.716V5.5C24 4.26 22.99 3.25 21.75 3.25H6.25C5.01 3.25 4 4.26 4 5.5V5.697L13.55 12.082Z" fill="white"/>
<path d="M15.26 13.295C14.877 13.55 14.44 13.677 14 13.677C13.56 13.677 13.123 13.55 12.74 13.294L4 7.45203V19.122C4 20.362 5.01 21.372 6.25 21.372H21.75C22.99 21.372 24 20.362 24 19.122V7.47003L15.26 13.293V13.295Z" fill="white"/>
</g>
<defs>
<filter id="filter0_d" x="-2" y="0" width="32" height="32" filterUnits="userSpaceOnUse" color-interpolation-filters="sRGB">
<feFlood flood-opacity="0" result="BackgroundImageFix"/>
<feColorMatrix in="SourceAlpha" type="matrix" values="0 0 0 0 0 0 0 0 0 0 0 0 0 0 0 0 0 0 127 0"/>
<feOffset dy="4"/>
<feGaussianBlur stdDeviation="2"/>
<feColorMatrix type="matrix" values="0 0 0 0 0 0 0 0 0 0 0 0 0 0 0 0 0 0 0.25 0"/>
<feBlend mode="normal" in2="BackgroundImageFix" result="effect1_dropShadow"/>
<feBlend mode="normal" in="SourceGraphic" in2="effect1_dropShadow" result="shape"/>
</filter>
</defs>
</svg>
