<svg width="30" height="31" viewBox="0 0 30 31" fill="none" xmlns="http://www.w3.org/2000/svg">
<g filter="url(#filter0_d)">
<path d="M19.5 10.25C18.535 10.25 17.75 11.037 17.75 12C17.75 12.963 18.534 13.75 19.5 13.75C20.464 13.75 21.25 12.964 21.25 12C21.25 11.036 20.464 10.25 19.5 10.25ZM19.5 12.75C19.086 12.75 18.75 12.414 18.75 12C18.75 11.587 19.087 11.25 19.5 11.25C19.913 11.25 20.25 11.586 20.25 12C20.25 12.413 19.914 12.75 19.5 12.75ZM15 10.25C14.034 10.25 13.25 11.037 13.25 12C13.25 12.963 14.035 13.75 15 13.75C15.965 13.75 16.75 12.964 16.75 12C16.75 11.036 15.966 10.25 15 10.25ZM15 12.75C14.586 12.75 14.25 12.414 14.25 12C14.25 11.587 14.587 11.25 15 11.25C15.413 11.25 15.75 11.586 15.75 12C15.75 12.413 15.414 12.75 15 12.75ZM10.5 10.25C9.535 10.25 8.75 11.037 8.75 12C8.75 12.963 9.535 13.75 10.5 13.75C11.464 13.75 12.25 12.964 12.25 12C12.25 11.036 11.463 10.25 10.5 10.25ZM10.5 12.75C10.086 12.75 9.75 12.414 9.75 12C9.75 11.587 10.087 11.25 10.5 11.25C10.913 11.25 11.25 11.586 11.25 12C11.25 12.413 10.914 12.75 10.5 12.75Z" fill="white"/>
<path d="M15 22.75C9.072 22.75 4.25 17.928 4.25 12C4.25 6.072 9.072 1.25 15 1.25C20.928 1.25 25.75 6.072 25.75 12C25.75 17.928 20.928 22.75 15 22.75ZM15 2.75C9.9 2.75 5.75 6.9 5.75 12C5.75 17.1 9.9 21.25 15 21.25C20.1 21.25 24.25 17.1 24.25 12C24.25 6.9 20.1 2.75 15 2.75Z" fill="white"/>
</g>
<defs>
<filter id="filter0_d" x="-1" y="0" width="32" height="32" filterUnits="userSpaceOnUse" color-interpolation-filters="sRGB">
<feFlood flood-opacity="0" result="BackgroundImageFix"/>
<feColorMatrix in="SourceAlpha" type="matrix" values="0 0 0 0 0 0 0 0 0 0 0 0 0 0 0 0 0 0 127 0"/>
<feOffset dy="4"/>
<feGaussianBlur stdDeviation="2"/>
<feColorMatrix type="matrix" values="0 0 0 0 0 0 0 0 0 0 0 0 0 0 0 0 0 0 0.25 0"/>
<feBlend mode="normal" in2="BackgroundImageFix" result="effect1_dropShadow"/>
<feBlend mode="normal" in="SourceGraphic" in2="effect1_dropShadow" result="shape"/>
</filter>
</defs>
</svg>
