<svg width="30" height="31" viewBox="0 0 30 31" fill="none" xmlns="http://www.w3.org/2000/svg">
<g filter="url(#filter0_d)">
<path d="M15 8.21002C12.91 8.21002 11.21 9.91002 11.21 12C11.21 14.09 12.91 15.79 15 15.79C17.09 15.79 18.79 14.09 18.79 12C18.79 9.91002 17.09 8.21002 15 8.21002ZM15 14.29C13.738 14.29 12.71 13.264 12.71 12C12.71 10.736 13.74 9.71002 15 9.71002C16.26 9.71002 17.29 10.736 17.29 12C17.29 13.264 16.262 14.29 15 14.29Z" fill="white"/>
<path d="M15.36 22.375H14.638C13.455 22.375 12.484 21.487 12.376 20.311L12.362 20.164C12.337 19.877 12.155 19.631 11.89 19.52C11.604 19.4 11.308 19.455 11.092 19.635L10.976 19.732C10.108 20.457 8.72299 20.395 7.91599 19.592L7.40599 19.082C6.56999 18.242 6.50999 16.928 7.26599 16.022L7.36399 15.904C7.54999 15.682 7.59399 15.381 7.48599 15.117C7.37599 14.845 7.12799 14.663 6.83999 14.637L6.68999 14.623C5.50999 14.516 4.62299 13.543 4.62299 12.361V11.639C4.62299 10.456 5.51099 9.485 6.68699 9.377L6.84299 9.363C7.12799 9.338 7.37299 9.156 7.48499 8.89C7.59499 8.62 7.54999 8.317 7.36499 8.095L7.27099 7.979C6.51399 7.071 6.57299 5.756 7.40799 4.919L7.91999 4.407C8.72399 3.603 10.108 3.542 10.98 4.267L11.096 4.365C11.314 4.549 11.624 4.595 11.886 4.487C12.156 4.375 12.338 4.129 12.363 3.844L12.377 3.691C12.484 2.511 13.457 1.625 14.639 1.625H15.361C16.544 1.625 17.515 2.513 17.623 3.689L17.637 3.845C17.662 4.13 17.843 4.375 18.109 4.485C18.386 4.602 18.689 4.547 18.903 4.368L19.023 4.266C19.89 3.543 21.277 3.604 22.083 4.406L22.593 4.918C23.429 5.756 23.489 7.071 22.733 7.978L22.633 8.096C22.445 8.316 22.399 8.618 22.51 8.884C22.622 9.154 22.87 9.334 23.156 9.362L23.308 9.376C24.488 9.483 25.375 10.456 25.375 11.638V12.361C25.375 13.544 24.487 14.515 23.311 14.623L23.156 14.637C22.872 14.661 22.626 14.842 22.516 15.107C22.403 15.379 22.449 15.681 22.633 15.902L22.733 16.022C23.489 16.927 23.429 18.242 22.593 19.082L22.083 19.592C21.276 20.396 19.893 20.456 19.023 19.732L18.908 19.636C18.691 19.453 18.378 19.406 18.118 19.514C17.845 19.628 17.663 19.874 17.638 20.16L17.624 20.31C17.517 21.483 16.544 22.37 15.362 22.37L15.36 22.375ZM11.587 17.955C11.887 17.955 12.18 18.015 12.457 18.13C13.247 18.458 13.781 19.184 13.857 20.026L13.871 20.173C13.908 20.573 14.238 20.873 14.641 20.873H15.363C15.763 20.873 16.093 20.573 16.131 20.173L16.145 20.025C16.221 19.183 16.755 18.458 17.537 18.133C18.33 17.803 19.233 17.951 19.87 18.483L19.983 18.577C20.161 18.725 20.349 18.757 20.476 18.757C20.682 18.757 20.876 18.677 21.022 18.53L21.532 18.02C21.816 17.736 21.837 17.29 21.58 16.982L21.48 16.862C20.938 16.212 20.803 15.322 21.128 14.539C21.454 13.749 22.18 13.219 23.022 13.142L23.177 13.128C23.574 13.091 23.877 12.761 23.877 12.358V11.636C23.877 11.236 23.574 10.906 23.175 10.868L23.023 10.854C22.177 10.776 21.453 10.244 21.128 9.461C20.802 8.673 20.938 7.783 21.481 7.134L21.581 7.016C21.838 6.706 21.817 6.26 21.533 5.976L21.023 5.466C20.877 5.319 20.683 5.239 20.477 5.239C20.35 5.239 20.162 5.271 19.985 5.419L19.865 5.519C19.231 6.047 18.315 6.189 17.543 5.873C16.755 5.546 16.223 4.821 16.146 3.977L16.132 3.822C16.097 3.425 15.767 3.122 15.365 3.122H14.642C14.242 3.122 13.912 3.425 13.874 3.824L13.86 3.976C13.784 4.819 13.252 5.544 12.47 5.869C11.683 6.195 10.777 6.052 10.14 5.519L10.022 5.423C9.84199 5.273 9.65399 5.243 9.52699 5.243C9.32099 5.243 9.12699 5.323 8.98099 5.469L8.46899 5.979C8.18699 6.263 8.16599 6.709 8.42299 7.017L8.52299 7.135C9.06299 7.788 9.19999 8.679 8.87499 9.46C8.54799 10.248 7.82299 10.78 6.97999 10.857L6.82399 10.871C6.42699 10.908 6.12399 11.238 6.12399 11.641V12.363C6.12399 12.763 6.42699 13.093 6.82599 13.131L6.97599 13.145C7.82399 13.223 8.54899 13.757 8.87299 14.541C9.19799 15.327 9.06299 16.216 8.51999 16.866L8.42399 16.981C8.16399 17.291 8.18599 17.737 8.46999 18.021L8.97999 18.531C9.12599 18.678 9.31999 18.758 9.52599 18.758C9.65299 18.758 9.84099 18.728 10.018 18.578L10.134 18.482C10.54 18.146 11.057 17.958 11.587 17.958V17.955Z" fill="white"/>
</g>
<defs>
<filter id="filter0_d" x="-1" y="0" width="32" height="32" filterUnits="userSpaceOnUse" color-interpolation-filters="sRGB">
<feFlood flood-opacity="0" result="BackgroundImageFix"/>
<feColorMatrix in="SourceAlpha" type="matrix" values="0 0 0 0 0 0 0 0 0 0 0 0 0 0 0 0 0 0 127 0"/>
<feOffset dy="4"/>
<feGaussianBlur stdDeviation="2"/>
<feColorMatrix type="matrix" values="0 0 0 0 0 0 0 0 0 0 0 0 0 0 0 0 0 0 0.25 0"/>
<feBlend mode="normal" in2="BackgroundImageFix" result="effect1_dropShadow"/>
<feBlend mode="normal" in="SourceGraphic" in2="effect1_dropShadow" result="shape"/>
</filter>
</defs>
</svg>
