<svg width="26" height="30" viewBox="0 0 26 30" fill="none" xmlns="http://www.w3.org/2000/svg">
<g filter="url(#filter0_d)">
<path d="M13 11.816C14.355 11.816 15.872 11.666 16.84 10.56C17.654 9.63001 17.918 8.19201 17.646 6.16801C17.266 3.34301 15.529 1.65601 13 1.65601C10.471 1.65601 8.73403 3.34301 8.35403 6.17001C8.08203 8.19201 8.34603 9.63001 9.16003 10.56C10.128 11.667 11.645 11.816 13 11.816ZM9.84003 6.36801C10.002 5.16801 10.627 3.15601 13 3.15601C15.373 3.15601 15.998 5.16901 16.16 6.36801C16.367 7.91801 16.217 8.99501 15.71 9.57301C15.255 10.093 14.444 10.316 13 10.316C11.556 10.316 10.745 10.093 10.29 9.57301C9.78303 8.99501 9.63303 7.91701 9.84003 6.36801ZM21.28 19.236C20.403 15.71 16.998 13.246 13 13.246C9.00203 13.246 5.59703 15.71 4.72003 19.236C4.54803 19.928 4.69203 20.636 5.11503 21.176C5.52303 21.696 6.15503 21.996 6.84803 21.996H19.152C19.845 21.996 20.477 21.696 20.885 21.176C21.309 20.636 21.452 19.929 21.279 19.236H21.28ZM19.704 20.252C19.578 20.412 19.388 20.498 19.152 20.498H6.84803C6.61303 20.498 6.42203 20.413 6.29603 20.252C6.15903 20.078 6.11603 19.84 6.17603 19.598C6.88603 16.743 9.69303 14.748 13 14.748C16.307 14.748 19.114 16.742 19.824 19.598C19.884 19.84 19.841 20.078 19.704 20.252Z" fill="white"/>
</g>
<defs>
<filter id="filter0_d" x="-3" y="0" width="32" height="32" filterUnits="userSpaceOnUse" color-interpolation-filters="sRGB">
<feFlood flood-opacity="0" result="BackgroundImageFix"/>
<feColorMatrix in="SourceAlpha" type="matrix" values="0 0 0 0 0 0 0 0 0 0 0 0 0 0 0 0 0 0 127 0"/>
<feOffset dy="4"/>
<feGaussianBlur stdDeviation="2"/>
<feColorMatrix type="matrix" values="0 0 0 0 0 0 0 0 0 0 0 0 0 0 0 0 0 0 0.25 0"/>
<feBlend mode="normal" in2="BackgroundImageFix" result="effect1_dropShadow"/>
<feBlend mode="normal" in="SourceGraphic" in2="effect1_dropShadow" result="shape"/>
</filter>
</defs>
</svg>
