<svg width="28" height="30" viewBox="0 0 28 30" fill="none" xmlns="http://www.w3.org/2000/svg">
<g filter="url(#filter0_d)">
<path d="M22.222 9.15997H20.888C20.903 9.06997 20.916 8.97797 20.916 8.88297V6.56997C20.916 5.58997 20.119 4.79297 19.138 4.79297H5.5V3.35797C5.5 2.94397 5.164 2.60797 4.75 2.60797C4.336 2.60797 4 2.94397 4 3.35797V20.83C4 21.245 4.336 21.58 4.75 21.58C5.164 21.58 5.5 21.245 5.5 20.83V19.396H16.056C17.036 19.396 17.834 18.599 17.834 17.619V15.306C17.834 15.211 17.82 15.119 17.806 15.028H22.223C23.203 15.028 24.001 14.23 24.001 13.25V10.94C24.001 9.95697 23.204 9.15997 22.223 9.15997H22.222ZM19.14 6.29297C19.292 6.29297 19.417 6.41697 19.417 6.56997V8.87997C19.417 9.03397 19.292 9.15997 19.139 9.15997H5.5V6.28997H19.14V6.29297ZM16.333 15.307V17.619C16.333 17.772 16.208 17.896 16.055 17.896H5.5V15.028H16.056C16.209 15.028 16.333 15.154 16.333 15.308V15.307ZM22.5 13.25C22.5 13.403 22.375 13.527 22.222 13.527H5.5V10.66H22.222C22.375 10.66 22.5 10.784 22.5 10.937V13.25Z" fill="white"/>
</g>
<defs>
<filter id="filter0_d" x="-2" y="0" width="32" height="32" filterUnits="userSpaceOnUse" color-interpolation-filters="sRGB">
<feFlood flood-opacity="0" result="BackgroundImageFix"/>
<feColorMatrix in="SourceAlpha" type="matrix" values="0 0 0 0 0 0 0 0 0 0 0 0 0 0 0 0 0 0 127 0"/>
<feOffset dy="4"/>
<feGaussianBlur stdDeviation="2"/>
<feColorMatrix type="matrix" values="0 0 0 0 0 0 0 0 0 0 0 0 0 0 0 0 0 0 0.25 0"/>
<feBlend mode="normal" in2="BackgroundImageFix" result="effect1_dropShadow"/>
<feBlend mode="normal" in="SourceGraphic" in2="effect1_dropShadow" result="shape"/>
</filter>
</defs>
</svg>
