<svg width="28" height="30" viewBox="0 0 28 30" fill="none" xmlns="http://www.w3.org/2000/svg">
<g filter="url(#filter0_d)">
<path d="M16.046 2.24199L11.898 2.23199H11.896C7.52201 2.23199 4.09601 5.65899 4.09601 10.034C4.09601 14.132 7.28201 17.24 11.561 17.404V21.232C11.561 21.34 11.605 21.518 11.681 21.635C11.823 21.86 12.065 21.982 12.313 21.982C12.451 21.982 12.59 21.944 12.715 21.864C12.979 21.696 19.188 17.724 20.803 16.358C22.705 14.748 23.843 12.388 23.846 10.046V10.029C23.84 5.66199 20.416 2.24199 16.046 2.24099V2.24199ZM19.833 15.214C18.699 16.174 14.971 18.619 13.061 19.857V16.67C13.061 16.256 12.726 15.92 12.311 15.92H11.915C8.25501 15.92 5.59701 13.444 5.59701 10.034C5.59701 6.49999 8.36501 3.73199 11.897 3.73199L16.044 3.74199H16.046C19.578 3.74199 22.346 6.50799 22.348 10.038C22.345 11.948 21.406 13.882 19.834 15.214H19.833Z" fill="white"/>
</g>
<defs>
<filter id="filter0_d" x="-2" y="0" width="32" height="32" filterUnits="userSpaceOnUse" color-interpolation-filters="sRGB">
<feFlood flood-opacity="0" result="BackgroundImageFix"/>
<feColorMatrix in="SourceAlpha" type="matrix" values="0 0 0 0 0 0 0 0 0 0 0 0 0 0 0 0 0 0 127 0"/>
<feOffset dy="4"/>
<feGaussianBlur stdDeviation="2"/>
<feColorMatrix type="matrix" values="0 0 0 0 0 0 0 0 0 0 0 0 0 0 0 0 0 0 0.25 0"/>
<feBlend mode="normal" in2="BackgroundImageFix" result="effect1_dropShadow"/>
<feBlend mode="normal" in="SourceGraphic" in2="effect1_dropShadow" result="shape"/>
</filter>
</defs>
</svg>
