<svg width="32" height="29" viewBox="0 0 32 29" fill="none" xmlns="http://www.w3.org/2000/svg">
<g filter="url(#filter0_d)">
<path d="M27.77 15.67C27.478 15.377 27.003 15.377 26.71 15.67L24.49 17.89V7.64998C24.49 5.58198 22.807 3.89998 20.74 3.89998H14.89C14.476 3.89998 14.14 4.23598 14.14 4.64998C14.14 5.06398 14.476 5.39998 14.89 5.39998H20.74C21.98 5.39998 22.99 6.40998 22.99 7.64998V17.89L20.77 15.67C20.477 15.377 20.002 15.377 19.71 15.67C19.418 15.963 19.416 16.438 19.71 16.73L23.21 20.23C23.355 20.377 23.547 20.45 23.74 20.45C23.933 20.45 24.123 20.378 24.27 20.23L27.77 16.73C28.064 16.438 28.064 15.963 27.77 15.67ZM17.11 18.95H11.26C10.02 18.95 9.00997 17.94 9.00997 16.7V6.45998L11.23 8.67998C11.378 8.82698 11.57 8.89997 11.762 8.89997C11.954 8.89997 12.146 8.82698 12.292 8.67998C12.585 8.38698 12.585 7.91197 12.292 7.61998L8.79197 4.11998C8.49897 3.82598 8.02397 3.82598 7.73197 4.11998L4.23197 7.61998C3.93797 7.91197 3.93797 8.38698 4.23197 8.67998C4.52597 8.97298 4.99897 8.97298 5.29197 8.67998L7.51197 6.45998V16.7C7.51197 18.768 9.19497 20.45 11.262 20.45H17.112C17.526 20.45 17.862 20.114 17.862 19.7C17.862 19.286 17.525 18.95 17.112 18.95H17.11Z" fill="white"/>
</g>
<defs>
<filter id="filter0_d" x="0" y="0" width="32" height="32" filterUnits="userSpaceOnUse" color-interpolation-filters="sRGB">
<feFlood flood-opacity="0" result="BackgroundImageFix"/>
<feColorMatrix in="SourceAlpha" type="matrix" values="0 0 0 0 0 0 0 0 0 0 0 0 0 0 0 0 0 0 127 0"/>
<feOffset dy="4"/>
<feGaussianBlur stdDeviation="2"/>
<feColorMatrix type="matrix" values="0 0 0 0 0 0 0 0 0 0 0 0 0 0 0 0 0 0 0.25 0"/>
<feBlend mode="normal" in2="BackgroundImageFix" result="effect1_dropShadow"/>
<feBlend mode="normal" in="SourceGraphic" in2="effect1_dropShadow" result="shape"/>
</filter>
</defs>
</svg>
