<svg width="28" height="30" viewBox="0 0 28 30" fill="none" xmlns="http://www.w3.org/2000/svg">
<g filter="url(#filter0_d)">
<path d="M23.53 20.47L19.87 16.81C21.195 15.24 22 13.214 22 11C22 6.03 17.97 2 13 2C8.03 2 4 6.03 4 11C4 15.97 8.03 20 13 20C15.215 20 17.24 19.196 18.808 17.87L22.468 21.53C22.615 21.676 22.808 21.75 22.998 21.75C23.188 21.75 23.383 21.677 23.528 21.53C23.823 21.237 23.823 20.763 23.53 20.47ZM5.5 11C5.5 6.865 8.865 3.5 13 3.5C17.135 3.5 20.5 6.865 20.5 11C20.5 15.135 17.135 18.5 13 18.5C8.865 18.5 5.5 15.135 5.5 11Z" fill="white"/>
</g>
<defs>
<filter id="filter0_d" x="-2" y="0" width="32" height="32" filterUnits="userSpaceOnUse" color-interpolation-filters="sRGB">
<feFlood flood-opacity="0" result="BackgroundImageFix"/>
<feColorMatrix in="SourceAlpha" type="matrix" values="0 0 0 0 0 0 0 0 0 0 0 0 0 0 0 0 0 0 127 0"/>
<feOffset dy="4"/>
<feGaussianBlur stdDeviation="2"/>
<feColorMatrix type="matrix" values="0 0 0 0 0 0 0 0 0 0 0 0 0 0 0 0 0 0 0.25 0"/>
<feBlend mode="normal" in2="BackgroundImageFix" result="effect1_dropShadow"/>
<feBlend mode="normal" in="SourceGraphic" in2="effect1_dropShadow" result="shape"/>
</filter>
</defs>
</svg>
