<svg width="28" height="30" viewBox="0 0 28 30" fill="none" xmlns="http://www.w3.org/2000/svg">
<g filter="url(#filter0_d)">
<path d="M19.53 7.46999L14.53 2.46999C14.237 2.17699 13.762 2.17699 13.47 2.46999L8.47001 7.46999C8.17601 7.76299 8.17601 8.23799 8.47001 8.52999C8.76401 8.82199 9.23701 8.82399 9.53001 8.52999L13.25 4.80999V15C13.25 15.414 13.586 15.75 14 15.75C14.414 15.75 14.75 15.414 14.75 15V4.80999L18.47 8.52999C18.616 8.67699 18.808 8.74999 19 8.74999C19.192 8.74999 19.384 8.67799 19.53 8.52999C19.823 8.23699 19.823 7.76299 19.53 7.46999Z" fill="white"/>
<path d="M21.708 21.944H6.292C5.028 21.944 4 20.916 4 19.652V14C4 13.586 4.336 13.25 4.75 13.25C5.164 13.25 5.5 13.586 5.5 14V19.652C5.5 20.089 5.855 20.444 6.292 20.444H21.708C22.145 20.444 22.5 20.089 22.5 19.652V14C22.5 13.586 22.836 13.25 23.25 13.25C23.664 13.25 24 13.586 24 14V19.652C24 20.916 22.972 21.944 21.708 21.944Z" fill="white"/>
</g>
<defs>
<filter id="filter0_d" x="-2" y="0" width="32" height="32" filterUnits="userSpaceOnUse" color-interpolation-filters="sRGB">
<feFlood flood-opacity="0" result="BackgroundImageFix"/>
<feColorMatrix in="SourceAlpha" type="matrix" values="0 0 0 0 0 0 0 0 0 0 0 0 0 0 0 0 0 0 127 0"/>
<feOffset dy="4"/>
<feGaussianBlur stdDeviation="2"/>
<feColorMatrix type="matrix" values="0 0 0 0 0 0 0 0 0 0 0 0 0 0 0 0 0 0 0.25 0"/>
<feBlend mode="normal" in2="BackgroundImageFix" result="effect1_dropShadow"/>
<feBlend mode="normal" in="SourceGraphic" in2="effect1_dropShadow" result="shape"/>
</filter>
</defs>
</svg>
