<svg width="32" height="31" viewBox="0 0 32 31" fill="none" xmlns="http://www.w3.org/2000/svg">
<g filter="url(#filter0_d)">
<path d="M26.772 10.506L21.154 8.31399L18.994 1.81399C18.892 1.50699 18.604 1.29999 18.282 1.29999C17.96 1.29999 17.672 1.50699 17.57 1.81299L15.41 8.31299L9.79 10.505C9.503 10.617 9.313 10.895 9.313 11.205C9.313 11.515 9.503 11.79 9.791 11.903L15.411 14.095L17.571 20.595C17.673 20.901 17.961 21.108 18.283 21.108C18.605 21.108 18.893 20.901 18.995 20.595L21.155 14.095L26.775 11.903C27.062 11.791 27.252 11.513 27.252 11.203C27.252 10.893 27.062 10.618 26.774 10.506H26.772ZM20.282 12.826C20.074 12.906 19.912 13.076 19.842 13.286L18.282 17.981L16.722 13.288C16.652 13.078 16.492 12.908 16.284 12.826L12.129 11.206L16.283 9.58399C16.491 9.50399 16.653 9.33399 16.723 9.12199L18.283 4.42899L19.843 9.12299C19.913 9.33499 20.073 9.50499 20.281 9.58599L24.436 11.206L20.281 12.828L20.282 12.826ZM10.663 3.81199H8.783V2.04999C8.783 1.63599 8.446 1.29999 8.033 1.29999C7.62 1.29999 7.283 1.63599 7.283 2.04999V3.81199H5.5C5.086 3.81199 4.75 4.14799 4.75 4.56199C4.75 4.97599 5.086 5.31199 5.5 5.31199H7.282V7.07399C7.282 7.48799 7.618 7.82399 8.032 7.82399C8.446 7.82399 8.782 7.48799 8.782 7.07399V5.31199H10.662C11.077 5.31199 11.412 4.97599 11.412 4.56199C11.412 4.14799 11.077 3.81199 10.662 3.81199H10.663ZM13.198 19.434H12.098V18.418C12.098 18.004 11.763 17.668 11.348 17.668C10.933 17.668 10.598 18.004 10.598 18.418V19.434H9.57C9.156 19.434 8.82 19.77 8.82 20.184C8.82 20.598 9.156 20.934 9.57 20.934H10.6V21.95C10.6 22.364 10.935 22.7 11.35 22.7C11.765 22.7 12.1 22.364 12.1 21.95V20.934H13.198C13.612 20.934 13.948 20.598 13.948 20.184C13.948 19.77 13.612 19.434 13.198 19.434Z" fill="white"/>
</g>
<defs>
<filter id="filter0_d" x="0" y="0" width="32" height="32" filterUnits="userSpaceOnUse" color-interpolation-filters="sRGB">
<feFlood flood-opacity="0" result="BackgroundImageFix"/>
<feColorMatrix in="SourceAlpha" type="matrix" values="0 0 0 0 0 0 0 0 0 0 0 0 0 0 0 0 0 0 127 0"/>
<feOffset dy="4"/>
<feGaussianBlur stdDeviation="2"/>
<feColorMatrix type="matrix" values="0 0 0 0 0 0 0 0 0 0 0 0 0 0 0 0 0 0 0.25 0"/>
<feBlend mode="normal" in2="BackgroundImageFix" result="effect1_dropShadow"/>
<feBlend mode="normal" in="SourceGraphic" in2="effect1_dropShadow" result="shape"/>
</filter>
</defs>
</svg>
